HIERARCHY
ROOT Root
{
  OFFSET 0.0 0.0 0.0
  CHANNELS 6 Xposition Yposition Zposition Zrotation Yrotation Xrotation
  JOINT Hips
  {
    OFFSET 0.0 100.0 0.0
    CHANNELS 6 Xposition Yposition Zposition Zrotation Yrotation Xrotation
    JOINT Spine1
    {
      OFFSET 5.003913 -0.037094 -0.013727
      CHANNELS 3 Zrotation Yrotation Xrotation
      JOINT Spine2
      {
        OFFSET 7.125363 -1e-06 0.0
        CHANNELS 3 Zrotation Yrotation Xrotation
        JOINT Chest
        {
          OFFSET 7.594027 1e-06 0.0
          CHANNELS 3 Zrotation Yrotation Xrotation
          JOINT Neck1
          {
            OFFSET 26.313086 -0.460272 -0.181672
            CHANNELS 3 Zrotation Yrotation Xrotation
            JOINT Neck2
            {
              OFFSET 8.045911 0.0 0.0
              CHANNELS 3 Zrotation Yrotation Xrotation
              JOINT Head
              {
                OFFSET 6.432774 0.0 0.0
                CHANNELS 3 Zrotation Yrotation Xrotation
                JOINT HeadEnd
                {
                  OFFSET 16.169773 0.06451 0.00362
                  CHANNELS 3 Zrotation Yrotation Xrotation
                }
                JOINT Jaw
                {
                  OFFSET 0.108741 3.12938 0.002639
                  CHANNELS 3 Zrotation Yrotation Xrotation
                }
                JOINT LeftEye
                {
                  OFFSET 4.45173 8.166359 3.206392
                  CHANNELS 3 Zrotation Yrotation Xrotation
                }
                JOINT RightEye
                {
                  OFFSET 4.436895 8.135758 -3.222429
                  CHANNELS 3 Zrotation Yrotation Xrotation
                }
              }
            }
          }
          JOINT LeftShoulder
          {
            OFFSET 23.218927 5.195579 1.621656
            CHANNELS 3 Zrotation Yrotation Xrotation
            JOINT LeftArm
            {
              OFFSET 15.902118 2e-06 -2e-06
              CHANNELS 3 Zrotation Yrotation Xrotation
              JOINT LeftForeArm
              {
                OFFSET 28.739307 0.0 -1e-06
                CHANNELS 3 Zrotation Yrotation Xrotation
                JOINT LeftHand
                {
                  OFFSET 27.093981 -4e-06 0.0
                  CHANNELS 3 Zrotation Yrotation Xrotation
                  JOINT LeftHandThumb1
                  {
                    OFFSET 2.276781 3.380274 0.83384
                    CHANNELS 3 Zrotation Yrotation Xrotation
                    JOINT LeftHandThumb2
                    {
                      OFFSET 4.705309 -1e-06 -1e-06
                      CHANNELS 3 Zrotation Yrotation Xrotation
                      JOINT LeftHandThumb3
                      {
                        OFFSET 2.798515 0.0 3e-06
                        CHANNELS 3 Zrotation Yrotation Xrotation
                        JOINT LeftHandThumbEnd
                        {
                          OFFSET 3.180793 4e-06 -4e-06
                          CHANNELS 3 Zrotation Yrotation Xrotation
                        }
                      }
                    }
                  }
                  JOINT LeftHandIndex1
                  {
                    OFFSET 3.247786 2.352677 0.137192
                    CHANNELS 3 Zrotation Yrotation Xrotation
                    JOINT LeftHandIndex2
                    {
                      OFFSET 6.367095 1e-06 0.0
                      CHANNELS 3 Zrotation Yrotation Xrotation
                      JOINT LeftHandIndex3
                      {
                        OFFSET 3.662364 0.0 0.0
                        CHANNELS 3 Zrotation Yrotation Xrotation
                        JOINT LeftHandIndex4
                        {
                          OFFSET 2.329242 4e-06 -4e-06
                          CHANNELS 3 Zrotation Yrotation Xrotation
                          JOINT LeftHandIndexEnd
                          {
                            OFFSET 2.767823 1e-06 0.0
                            CHANNELS 3 Zrotation Yrotation Xrotation
                          }
                        }
                      }
                    }
                  }
                  JOINT LeftHandMiddle1
                  {
                    OFFSET 3.163612 0.945023 -0.406112
                    CHANNELS 3 Zrotation Yrotation Xrotation
                    JOINT LeftHandMiddle2
                    {
                      OFFSET 6.276789 3e-06 0.0
                      CHANNELS 3 Zrotation Yrotation Xrotation
                      JOINT LeftHandMiddle3
                      {
                        OFFSET 4.35652 -1e-06 4e-06
                        CHANNELS 3 Zrotation Yrotation Xrotation
                        JOINT LeftHandMiddle4
                        {
                          OFFSET 2.996877 0.0 8e-06
                          CHANNELS 3 Zrotation Yrotation Xrotation
                          JOINT LeftHandMiddleEnd
                          {
                            OFFSET 2.323256 3e-06 -4e-06
                            CHANNELS 3 Zrotation Yrotation Xrotation
                          }
                        }
                      }
                    }
                  }
                  JOINT LeftHandRing1
                  {
                    OFFSET 2.882606 -0.309162 0.107445
                    CHANNELS 3 Zrotation Yrotation Xrotation
                    JOINT LeftHandRing2
                    {
                      OFFSET 6.033198 0.0 4e-06
                      CHANNELS 3 Zrotation Yrotation Xrotation
                      JOINT LeftHandRing3
                      {
                        OFFSET 4.350578 3e-06 0.0
                        CHANNELS 3 Zrotation Yrotation Xrotation
                        JOINT LeftHandRing4
                        {
                          OFFSET 2.651321 2e-06 -7e-06
                          CHANNELS 3 Zrotation Yrotation Xrotation
                          JOINT LeftHandRingEnd
                          {
                            OFFSET 1.937663 1e-06 -4e-06
                            CHANNELS 3 Zrotation Yrotation Xrotation
                          }
                        }
                      }
                    }
                  }
                  JOINT LeftHandPinky1
                  {
                    OFFSET 2.865315 -1.525436 0.575687
                    CHANNELS 3 Zrotation Yrotation Xrotation
                    JOINT LeftHandPinky2
                    {
                      OFFSET 5.54936 1e-06 -8e-06
                      CHANNELS 3 Zrotation Yrotation Xrotation
                      JOINT LeftHandPinky3
                      {
                        OFFSET 3.070974 0.0 -4e-06
                        CHANNELS 3 Zrotation Yrotation Xrotation
                        JOINT LeftHandPinky4
                        {
                          OFFSET 1.549672 1e-06 0.0
                          CHANNELS 3 Zrotation Yrotation Xrotation
                          JOINT LeftHandPinkyEnd
                          {
                            OFFSET 1.952123 0.0 0.0
                            CHANNELS 3 Zrotation Yrotation Xrotation
                          }
                        }
                      }
                    }
                  }
                }
              }
            }
          }
          JOINT RightShoulder
          {
            OFFSET 23.161716 5.296122 -1.380114
            CHANNELS 3 Zrotation Yrotation Xrotation
            JOINT RightArm
            {
              OFFSET -16.027195 -2e-06 1.1e-05
              CHANNELS 3 Zrotation Yrotation Xrotation
              JOINT RightForeArm
              {
                OFFSET -28.736639 4e-06 2e-06
                CHANNELS 3 Zrotation Yrotation Xrotation
                JOINT RightHand
                {
                  OFFSET -27.133619 6e-06 0.0
                  CHANNELS 3 Zrotation Yrotation Xrotation
                  JOINT RightHandThumb1
                  {
                    OFFSET -2.274328 -3.351035 -0.83067
                    CHANNELS 3 Zrotation Yrotation Xrotation
                    JOINT RightHandThumb2
                    {
                      OFFSET -4.703594 -3e-06 2e-06
                      CHANNELS 3 Zrotation Yrotation Xrotation
                      JOINT RightHandThumb3
                      {
                        OFFSET -2.794935 -4e-06 -3e-06
                        CHANNELS 3 Zrotation Yrotation Xrotation
                        JOINT RightHandThumbEnd
                        {
                          OFFSET -3.183852 4e-06 1e-06
                          CHANNELS 3 Zrotation Yrotation Xrotation
                        }
                      }
                    }
                  }
                  JOINT RightHandIndex1
                  {
                    OFFSET -3.253496 -2.33755 -0.127667
                    CHANNELS 3 Zrotation Yrotation Xrotation
                    JOINT RightHandIndex2
                    {
                      OFFSET -6.344434 0.0 0.0
                      CHANNELS 3 Zrotation Yrotation Xrotation
                      JOINT RightHandIndex3
                      {
                        OFFSET -3.654871 0.0 -8e-06
                        CHANNELS 3 Zrotation Yrotation Xrotation
                        JOINT RightHandIndex4
                        {
                          OFFSET -2.327586 -1e-06 0.0
                          CHANNELS 3 Zrotation Yrotation Xrotation
                          JOINT RightHandIndexEnd
                          {
                            OFFSET -2.770001 3e-06 8e-06
                            CHANNELS 3 Zrotation Yrotation Xrotation
                          }
                        }
                      }
                    }
                  }
                  JOINT RightHandMiddle1
                  {
                    OFFSET -3.168223 -0.944764 0.411762
                    CHANNELS 3 Zrotation Yrotation Xrotation
                    JOINT RightHandMiddle2
                    {
                      OFFSET -6.266691 -1e-06 -4e-06
                      CHANNELS 3 Zrotation Yrotation Xrotation
                      JOINT RightHandMiddle3
                      {
                        OFFSET -4.348901 0.0 0.0
                        CHANNELS 3 Zrotation Yrotation Xrotation
                        JOINT RightHandMiddle4
                        {
                          OFFSET -3.00024 2e-06 -4e-06
                          CHANNELS 3 Zrotation Yrotation Xrotation
                          JOINT RightHandMiddleEnd
                          {
                            OFFSET -2.321477 -4e-06 -4e-06
                            CHANNELS 3 Zrotation Yrotation Xrotation
                          }
                        }
                      }
                    }
                  }
                  JOINT RightHandRing1
                  {
                    OFFSET -2.885654 0.293261 -0.119232
                    CHANNELS 3 Zrotation Yrotation Xrotation
                    JOINT RightHandRing2
                    {
                      OFFSET -6.032835 -1e-06 -4e-06
                      CHANNELS 3 Zrotation Yrotation Xrotation
                      JOINT RightHandRing3
                      {
                        OFFSET -4.33881 0.0 -4e-06
                        CHANNELS 3 Zrotation Yrotation Xrotation
                        JOINT RightHandRing4
                        {
                          OFFSET -2.654903 -4e-06 -4e-06
                          CHANNELS 3 Zrotation Yrotation Xrotation
                          JOINT RightHandRingEnd
                          {
                            OFFSET -1.935122 0.0 4e-06
                            CHANNELS 3 Zrotation Yrotation Xrotation
                          }
                        }
                      }
                    }
                  }
                  JOINT RightHandPinky1
                  {
                    OFFSET -2.866241 1.503904 -0.60527
                    CHANNELS 3 Zrotation Yrotation Xrotation
                    JOINT RightHandPinky2
                    {
                      OFFSET -5.553177 -2e-06 0.0
                      CHANNELS 3 Zrotation Yrotation Xrotation
                      JOINT RightHandPinky3
                      {
                        OFFSET -3.062664 -1e-06 -4e-06
                        CHANNELS 3 Zrotation Yrotation Xrotation
                        JOINT RightHandPinky4
                        {
                          OFFSET -1.546529 2e-06 4e-06
                          CHANNELS 3 Zrotation Yrotation Xrotation
                          JOINT RightHandPinkyEnd
                          {
                            OFFSET -1.952341 0.0 -4e-06
                            CHANNELS 3 Zrotation Yrotation Xrotation
                          }
                        }
                      }
                    }
                  }
                }
              }
            }
          }
        }
      }
    }
    JOINT LeftLeg
    {
      OFFSET -8.443107 2.567604 10.043214
      CHANNELS 3 Zrotation Yrotation Xrotation
      JOINT LeftShin
      {
        OFFSET 43.229198 1e-06 -1e-06
        CHANNELS 3 Zrotation Yrotation Xrotation
        JOINT LeftFoot
        {
          OFFSET 42.298611 1e-06 1e-06
          CHANNELS 3 Zrotation Yrotation Xrotation
          JOINT LeftToeBase
          {
            OFFSET 14.165858 1e-06 0.0
            CHANNELS 3 Zrotation Yrotation Xrotation
            JOINT LeftToeEnd
            {
              OFFSET 6.7141 -0.234461 0.0
              CHANNELS 3 Zrotation Yrotation Xrotation
            }
          }
        }
      }
    }
    JOINT RightLeg
    {
      OFFSET -8.303923 2.592729 -10.047278
      CHANNELS 3 Zrotation Yrotation Xrotation
      JOINT RightShin
      {
        OFFSET -43.369682 0.0 1e-06
        CHANNELS 3 Zrotation Yrotation Xrotation
        JOINT RightFoot
        {
          OFFSET -42.260784 4e-06 2e-06
          CHANNELS 3 Zrotation Yrotation Xrotation
          JOINT RightToeBase
          {
            OFFSET -14.222245 -2e-06 -1e-06
            CHANNELS 3 Zrotation Yrotation Xrotation
            JOINT RightToeEnd
            {
              OFFSET -6.660062 0.232574 -2e-06
              CHANNELS 3 Zrotation Yrotation Xrotation
            }
          }
        }
      }
    }
  }
}
MOTION
Frames: 4
Frame Time: 0.03333333333333333
0.0 0.0 0.0 0.0 -0.0 0.0 -60.282379 94.565758 -286.604614 90.476524 -8.049971 -92.75518 6.066685 -0.547358 0.898654 -9.027499 -0.22972 3.880299 13.554241 -1.1422 1.236632 24.728065 -8.795875 4.21935 -1.823755 0.445595 19.953083 -37.862221 6.606082 22.372396 6e-06 -1e-06 -2e-06 0.050565 -0.026818 -0.088028 -0.127469 -0.074927 -0.130029 -0.052773 0.017972 -0.025854 -94.253357 -69.992088 111.866982 -16.763371 -59.467922 23.822445 23.003918 -0.931464 0.583955 -2.57439 2.140908 -20.861025 17.636633 -26.322729 52.411201 -19.466663 -14.395596 29.410395 -1e-06 -8.774821 -2e-06 15.616015 -18.19932 6.380763 -0.609777 -1.795653 -3.889325 -4.807089 -11.046807 -2.937852 7e-06 -20.976015 -3e-06 -5.019968 -25.03356 -4.031883 5e-06 2e-06 -1e-06 -10.634535 -5.686973 -3.565589 10.573272 -17.922951 -3.113904 5e-06 -13.821209 -3e-06 -0.501776 -31.181501 -4.027016 -11.290672 -59.413891 6.885463 -13.982712 -7.150198 -2.875045 13.77273 -8.401493 -3.218241 0.347737 -34.211544 0.771648 -0.963028 -17.733368 2.621021 -1e-06 2e-06 0.0 -17.346416 -20.095217 -4.201785 21.757557 -1.638376 3.866427 2e-06 -6.338823 0.0 -1.697586 -22.591742 -6.194007 -0.0 -5e-06 -1e-06 106.291031 -82.086418 85.440941 22.518223 -46.878422 8.466516 101.622528 -0.458151 -0.554056 5.245151 -1.844753 9.65682 22.182123 -20.3759 49.933327 -16.701815 -16.743526 28.47653 -6e-06 -12.690601 -1e-06 14.315262 -17.968441 3.185467 -0.105921 -1.513855 -4.27588 -5.039039 -5.612871 -2.953556 3e-06 -11.020524 -2e-06 -6.1113 -15.895334 -3.840471 -2e-06 -0.0 1e-06 -10.283374 -5.680285 -4.341838 11.028296 -11.302407 -2.37263 -1.38427 -14.238581 -6.320122 -0.625439 -26.924191 -3.8276 -4.728117 -49.786846 -3.400367 -13.708526 -7.363474 -3.720942 18.141151 -14.05274 -3.242675 9e-06 -18.787271 -0.0 -0.429713 -8.456043 2.555504 1e-06 0.0 0.0 -15.923539 -20.094482 -5.473585 30.419222 -7.190828 1.735928 3e-06 -8.162929 -1e-06 -1.861903 -22.861473 -6.167942 1e-06 -3e-06 -1e-06 157.642563 -1.543041 -12.649001 34.549908 0.346826 -0.742298 -73.006676 -5.918659 -0.322481 -5.769262 1.335557 2.070258 -0.999999 -0.0 0.0 5.026784 -5.894375 -9.811718 61.855957 -0.762006 0.914089 -60.929359 5.310761 0.000394 -25.824949 1.058035 1.636595 -1.000006 0.0 -1e-06 
0.0 0.0 0.0 0.0 -0.0 0.0 -60.809601 92.429146 -292.136902 87.277946 -10.227025 -92.029259 7.100748 -2.05161 0.717999 -8.676983 -0.669963 3.251545 14.384512 -2.70773 0.561948 25.512913 -8.176821 4.475541 -1.933058 0.195094 19.631414 -39.425713 6.847681 22.42845 5e-06 -0.0 -1e-06 0.072713 -0.035549 -0.118589 -0.043558 -0.068358 -0.165838 0.058565 -0.008796 -0.045242 -87.814163 -72.002327 105.663017 -14.763683 -61.841976 24.238268 20.420652 -1.047826 0.604901 -3.546666 1.451001 -20.074663 17.636625 -26.322729 52.411194 -19.46666 -14.395596 29.410385 -0.0 -8.774822 -1e-06 15.819577 -18.178406 6.419459 -0.609776 -1.795655 -3.889329 -4.807088 -11.046811 -2.93785 2e-06 -20.976015 -1e-06 -5.01997 -25.03356 -4.031881 5e-06 -1e-06 -3e-06 -10.634535 -5.686973 -3.565588 10.573271 -17.922949 -3.1139 2e-06 -13.821209 -2e-06 -0.50178 -31.181505 -4.027019 -11.808758 -59.760345 7.526651 -13.982712 -7.150199 -2.875041 13.772727 -8.401491 -3.218242 0.347732 -34.211552 0.771649 -0.963028 -17.733368 2.621017 -1e-06 1e-06 -1e-06 -17.346418 -20.095221 -4.201782 21.757555 -1.638372 3.86643 1e-06 -6.338824 0.0 -1.697591 -22.591749 -6.194006 -0.0 -4e-06 -1e-06 107.430923 -80.695404 85.443649 22.025105 -49.455509 8.964477 103.769043 -0.633026 -0.30655 5.798037 -2.992194 11.661813 22.182114 -20.375891 49.933308 -16.701811 -16.743525 28.476522 -4e-06 -12.690599 -1e-06 14.515697 -18.223478 3.09317 -0.105921 -1.513857 -4.275879 -5.039039 -5.612867 -2.953556 3e-06 -11.020521 -2e-06 -6.111293 -15.89533 -3.840471 -1e-06 1e-06 1e-06 -10.283367 -5.680286 -4.341838 11.028292 -11.302402 -2.372632 -1.384266 -14.238575 -6.32012 -0.625437 -26.924179 -3.827599 -4.836089 -50.080921 -3.429382 -13.708523 -7.363474 -3.720939 18.141148 -14.052736 -3.242675 5e-06 -18.787266 1e-06 -0.429711 -8.456039 2.555503 1e-06 0.0 0.0 -15.923532 -20.094481 -5.473582 30.419207 -7.190824 1.735926 3e-06 -8.162924 -2e-06 -1.861902 -22.861467 -6.167939 1e-06 -3e-06 -0.0 158.487747 1.932034 -12.522138 44.535381 0.319467 -0.845484 -81.7892 -7.64272 0.908525 -5.090427 1.441284 2.116158 -0.999999 0.0 0.0 -2.962017 -11.736906 -7.02692 80.296776 -0.870429 0.733619 -53.04858 7.160295 -1.237487 -10.492193 0.740985 1.642436 -1.000003 0.0 -0.0 
0.0 0.0 0.0 0.0 -0.0 0.0 -61.173367 91.194557 -297.598053 85.769386 -11.721552 -91.026375 7.477555 -2.164775 0.584542 -8.428815 -0.748232 2.772329 15.535037 -3.524838 -0.152785 25.999517 -8.623271 4.68958 -1.925807 0.145629 19.006596 -40.03727 6.809838 22.987774 6e-06 -1e-06 -0.0 0.126061 -0.051203 -0.16718 0.016064 -0.07837 -0.223474 0.121349 -0.030926 -0.087243 -90.724846 -72.937706 108.408508 -5.728674 -62.401081 20.304495 17.221252 -0.820342 0.469514 -3.974126 0.221845 -16.229076 17.636639 -26.322741 52.411205 -19.46666 -14.3956 29.410393 -1e-06 -8.774822 -2e-06 16.007393 -17.849749 6.312438 -0.609775 -1.795654 -3.889327 -4.807091 -11.046812 -2.93785 3e-06 -20.976021 1e-06 -5.01997 -25.033562 -4.031882 7e-06 0.0 -0.0 -10.634536 -5.686971 -3.565588 10.573277 -17.922953 -3.1139 3e-06 -13.821212 2e-06 -0.501777 -31.181511 -4.027015 -12.060817 -60.088486 7.814294 -13.982714 -7.150198 -2.875041 13.772731 -8.401492 -3.21824 0.347733 -34.211555 0.771655 -0.963028 -17.733372 2.621019 1e-06 2e-06 -0.0 -17.346422 -20.095217 -4.201782 21.757559 -1.638375 3.866428 1e-06 -6.338824 1e-06 -1.69759 -22.591747 -6.194006 0.0 -4e-06 -4e-06 107.168083 -79.58252 87.104675 19.469801 -52.922401 11.030113 102.657578 -1.113258 -0.05164 5.700202 -3.826713 12.27732 22.18211 -20.375891 49.933319 -16.701811 -16.74353 28.476528 -2e-06 -12.690598 0.0 14.754293 -18.375284 3.07362 -0.105918 -1.513857 -4.275881 -5.03904 -5.612871 -2.953558 5e-06 -11.020525 -1e-06 -6.111298 -15.89533 -3.840469 0.0 1e-06 0.0 -10.283367 -5.680291 -4.341837 11.028291 -11.302404 -2.372635 -1.384265 -14.238579 -6.320122 -0.625439 -26.924187 -3.827601 -4.673374 -49.953014 -3.723593 -13.708522 -7.363476 -3.720939 18.141146 -14.052738 -3.242676 8e-06 -18.787266 -4e-06 -0.429713 -8.456041 2.555505 1e-06 0.0 0.0 -15.923534 -20.094484 -5.473585 30.41921 -7.190825 1.735926 2e-06 -8.162922 -2e-06 -1.861904 -22.861467 -6.167942 -1e-06 -3e-06 -1e-06 161.236511 4.032595 -11.893994 49.760128 0.312459 -0.795058 -88.397148 -7.957709 0.229515 -4.455618 1.556444 2.170508 -1.0 0.0 0.0 -11.574253 -13.382486 -2.72864 92.775452 -0.746921 0.618355 -55.017902 11.139254 -0.965054 -7.894793 0.706255 1.53422 -1.000001 -0.0 0.0 
0.0 0.0 0.0 0.0 -0.0 0.0 -61.460232 90.595695 -302.604095 85.392593 -12.346404 -89.520248 7.392766 -1.465048 0.432372 -8.312282 -0.570754 2.465698 16.271559 -3.708501 -0.72962 26.434763 -9.729867 4.634375 -1.91158 0.164679 18.960957 -39.524036 6.297277 23.734579 7e-06 -1e-06 -1e-06 0.13856 -0.042072 -0.160105 0.038899 -0.071983 -0.223858 0.129547 -0.017314 -0.077737 -99.900871 -72.920021 117.096626 6.327381 -61.295135 14.810882 15.436239 -0.693797 0.236866 -5.18026 -1.257715 -9.548107 17.636633 -26.322741 52.411201 -19.466665 -14.395598 29.410395 -1e-06 -8.774822 -2e-06 16.35684 -17.483204 6.174755 -0.609776 -1.795654 -3.889328 -4.807088 -11.046813 -2.937852 4e-06 -20.976023 1e-06 -5.019972 -25.033566 -4.031881 6e-06 1e-06 1e-06 -10.634536 -5.686973 -3.565587 10.573274 -17.922955 -3.113901 2e-06 -13.821214 1e-06 -0.501778 -31.181511 -4.027016 -12.612638 -60.645149 8.420544 -13.982715 -7.150198 -2.875043 13.772729 -8.401494 -3.218243 0.347732 -34.211555 0.771655 -0.96303 -17.733372 2.621019 0.0 2e-06 -0.0 -17.346422 -20.095221 -4.201782 21.757559 -1.638375 3.866428 1e-06 -6.338825 1e-06 -1.697589 -22.591749 -6.194007 -0.0 -3e-06 -2e-06 106.902718 -78.887238 88.395432 12.973421 -57.375912 15.660553 97.564819 -1.668706 0.235695 5.040951 -3.66398 11.671233 22.182119 -20.375895 49.933319 -16.701813 -16.74353 28.47653 -4e-06 -12.690603 -1e-06 14.763437 -18.284008 3.142815 -0.105921 -1.513855 -4.275881 -5.039042 -5.612871 -2.953555 7e-06 -11.020525 -3e-06 -6.1113 -15.895334 -3.840471 0.0 1e-06 -1e-06 -10.283371 -5.680288 -4.341839 11.028294 -11.302403 -2.372633 -1.384268 -14.238581 -6.32012 -0.625437 -26.924187 -3.827601 -4.459415 -49.504814 -3.930367 -13.708527 -7.363479 -3.720938 18.141151 -14.052737 -3.242675 8e-06 -18.78727 -2e-06 -0.429713 -8.456045 2.555504 -1e-06 0.0 -0.0 -15.923536 -20.094482 -5.473586 30.419218 -7.190829 1.735926 1e-06 -8.162922 1e-06 -1.861903 -22.861469 -6.167942 -1e-06 -3e-06 -1e-06 164.242096 5.577187 -9.61272 52.17915 0.235684 -0.577633 -93.426491 -8.958788 -0.640787 -4.209892 1.683863 2.223875 -0.999999 0.0 -0.0 -20.854416 -12.225391 0.545523 97.735306 -0.467966 0.572806 -60.337181 12.584932 -1.044493 -7.584778 0.68272 1.440197 -1.0 -0.0 0.0 
